name Walk2.mot
datacolumns 19
datarows 25
range 4.58500000 4.70500000
endheader

                time	   L_ground_force_vx	   L_ground_force_vy	   L_ground_force_vz	   L_ground_force_px	   L_ground_force_py	   L_ground_force_pz	   R_ground_force_vx	   R_ground_force_vy	   R_ground_force_vz	   R_ground_force_px	   R_ground_force_py	   R_ground_force_pz	   L_ground_torque_x	   L_ground_torque_y	   L_ground_torque_z	   R_ground_torque_x	   R_ground_torque_y	   R_ground_torque_z	
          4.58500000	         -0.00000000	         -0.00000000	         -0.00000000	          0.00000000	          0.00000000	          0.00000000	          0.57237861	         11.88106909	          0.19772859	          0.26172834	          0.00000000	          0.06114580	          0.00000000	          0.00000000	          0.00000000	          0.00000000	         -0.00021398	          0.00000000	
          4.59000000	         -0.00000000	         -0.00000000	         -0.00000000	          0.00000000	          0.00000000	          0.00000000	         -0.30426030	          4.82918468	         -0.13178636	          0.20058487	          0.00000000	          0.04655277	          0.00000000	         -0.00000000	          0.00000000	          0.00000000	          0.12505996	          0.00000000	
          4.59500000	         -0.00000000	         -0.00000000	         -0.00000000	          0.00000000	          0.00000000	          0.00000000	         -0.84236854	         -0.07498231	         -0.33267521	          0.14551090	          0.00000000	          0.03351278	          0.00000000	         -0.00000000	          0.00000000	          0.00000000	          0.19550498	          0.00000000	
          4.60000000	         -0.00000000	         -0.00000000	         -0.00000000	          0.00000000	          0.00000000	          0.00000000	         -1.12082576	         -3.21399940	         -0.43519075	          0.09868488	          0.00000000	          0.02250003	          0.00000000	         -0.00000000	          0.00000000	          0.00000000	          0.22521792	          0.00000000	
          4.60500000	         -0.00000000	         -0.00000000	         -0.00000000	          0.00000000	          0.00000000	          0.00000000	         -1.21075122	         -4.97280176	         -0.46651366	          0.06085148	          0.00000000	          0.01365829	          0.00000000	         -0.00000000	          0.00000000	          0.00000000	          0.22646025	          0.00000000	
          4.61000000	          0.00000000	         -0.00000000	         -0.00000000	          0.00000000	          0.00000000	          0.00000000	         -1.17266289	         -5.70739915	         -0.44970484	          0.03177704	          0.00000000	          0.00690805	          0.00000000	         -0.00000000	          0.00000000	          0.00000000	          0.20934666	          0.00000000	
          4.61500000	          0.00000000	          0.00000000	         -0.00000000	          0.00000000	          0.00000000	          0.00000000	         -1.05549413	         -5.72709596	         -0.40335946	          0.01061898	          0.00000000	          0.00203290	          0.00000000	         -0.00000000	          0.00000000	          0.00000000	          0.18181525	          0.00000000	
          4.62000000	          0.00000000	          0.00000000	          0.00000000	          0.00000000	          0.00000000	          0.00000000	         -0.89687925	         -5.28678311	         -0.34173820	         -0.00378910	          0.00000000	         -0.00125421	          0.00000000	         -0.00000000	          0.00000000	          0.00000000	          0.14978051	          0.00000000	
          4.62500000	          0.00000000	          0.00000000	          0.00000000	          0.00000000	          0.00000000	          0.00000000	         -0.72423029	         -4.58629838	         -0.27519433	         -0.01272906	          0.00000000	         -0.00326298	          0.00000000	         -0.00000000	          0.00000000	          0.00000000	          0.11739142	          0.00000000	
          4.63000000	          0.00000000	          0.00000000	          0.00000000	          0.00000000	          0.00000000	          0.00000000	         -0.55623600	         -3.77437035	         -0.21075648	         -0.01745536	          0.00000000	         -0.00429310	          0.00000000	         -0.00000000	          0.00000000	          0.00000000	          0.08733669	          0.00000000	
          4.63500000	          0.00000000	          0.00000000	          0.00000000	         -0.00000000	          0.00000000	          0.00000000	         -0.40451298	         -2.95518957	         -0.15276545	         -0.01910574	          0.00000000	         -0.00461417	          0.00000000	         -0.00000000	          0.00000000	          0.00000000	          0.06115589	          0.00000000	
          4.64000000	          0.00000000	          0.00000000	          0.00000000	         -0.00000000	          0.00000000	         -0.00000000	         -0.27522386	         -2.19614504	         -0.10349503	         -0.01865306	          0.00000000	         -0.00445514	          0.00000000	         -0.00000000	          0.00000000	          0.00000000	          0.03952996	          0.00000000	
          4.64500000	          0.00000000	          0.00000000	          0.00000000	         -0.00000000	          0.00000000	         -0.00000000	         -0.17054637	         -1.53569598	         -0.06371366	         -0.01688754	          0.00000000	         -0.00400080	          0.00000000	         -0.00000000	          0.00000000	          0.00000000	          0.02253533	          0.00000000	
          4.65000000	          0.00000000	          0.00000000	          0.00000000	         -0.00000000	          0.00000000	         -0.00000000	         -0.08993057	         -0.99070780	         -0.03316365	         -0.01441974	          0.00000000	         -0.00339303	          0.00000000	         -0.00000000	          0.00000000	          0.00000000	          0.00985473	          0.00000000	
          4.65500000	          0.00000000	          0.00000000	          0.00000000	         -0.00000000	          0.00000000	         -0.00000000	         -0.03112079	         -0.56286443	         -0.01094968	         -0.01169676	          0.00000000	         -0.00273494	          0.00000000	         -0.00000000	          0.00000000	          0.00000000	          0.00094352	          0.00000000	
          4.66000000	          0.00000000	          0.00000000	          0.00000000	         -0.00000000	          0.00000000	         -0.00000000	          0.00905405	         -0.24398100	          0.00416169	         -0.00902550	          0.00000000	         -0.00209661	          0.00000000	          0.00000000	          0.00000000	          0.00000000	         -0.00484569	          0.00000000	
          4.66500000	          0.00000000	          0.00000000	          0.00000000	         -0.00000000	          0.00000000	         -0.00000000	          0.03410134	         -0.02019128	          0.01352319	         -0.00659866	          0.00000000	         -0.00152145	          0.00000000	          0.00000000	          0.00000000	          0.00000000	         -0.00817496	          0.00000000	
          4.67000000	          0.00000000	          0.00000000	          0.00000000	         -0.00000000	          0.00000000	         -0.00000000	          0.04746667	          0.12491762	          0.01845701	         -0.00452050	          0.00000000	         -0.00103228	          0.00000000	          0.00000000	          0.00000000	          0.00000000	         -0.00966342	          0.00000000	
          4.67500000	          0.00000000	          0.00000000	          0.00000000	         -0.00000000	          0.00000000	         -0.00000000	          0.05228356	          0.20809367	          0.02016125	         -0.00283030	          0.00000000	         -0.00063694	          0.00000000	          0.00000000	          0.00000000	          0.00000000	         -0.00985368	          0.00000000	
          4.68000000	         -0.00000000	          0.00000000	          0.00000000	         -0.00000000	          0.00000000	         -0.00000000	          0.05123754	          0.24497516	          0.01965963	         -0.00152257	          0.00000000	         -0.00033305	          0.00000000	          0.00000000	          0.00000000	          0.00000000	         -0.00919638	          0.00000000	
          4.68500000	         -0.00000000	         -0.00000000	          0.00000000	         -0.00000000	          0.00000000	         -0.00000000	          0.04651448	          0.24925198	          0.01778312	         -0.00056352	          0.00000000	         -0.00011183	          0.00000000	          0.00000000	          0.00000000	          0.00000000	         -0.00804755	          0.00000000	
          4.69000000	         -0.00000000	         -0.00000000	         -0.00000000	         -0.00000000	          0.00000000	         -0.00000000	          0.03980694	          0.23228180	          0.01517332	          0.00009606	          0.00000000	          0.00003888	          0.00000000	          0.00000000	          0.00000000	          0.00000000	         -0.00667436	          0.00000000	
          4.69500000	         -0.00000000	         -0.00000000	         -0.00000000	         -0.00000000	          0.00000000	         -0.00000000	          0.03235728	          0.20302847	          0.01229967	          0.00051144	          0.00000000	          0.00013246	          0.00000000	          0.00000000	          0.00000000	          0.00000000	         -0.00526590	          0.00000000	
          4.70000000	         -0.00000000	         -0.00000000	         -0.00000000	         -0.00000000	          0.00000000	         -0.00000000	          0.02502088	          0.16821178	          0.00948411	          0.00073737	          0.00000000	          0.00018199	          0.00000000	          0.00000000	          0.00000000	          0.00000000	         -0.00394621	          0.00000000	
          4.70500000	         -0.00000000	         -0.00000000	         -0.00000000	          0.00000000	          0.00000000	         -0.00000000	          0.01833735	          0.13258100	          0.00692846	          0.00082393	          0.00000000	          0.00019936	          0.00000000	          0.00000000	          0.00000000	          0.00000000	         -0.00278782	          0.00000000	
